<svg xmlns="http://www.w3.org/2000/svg" width="375" height="400" fill="none" viewBox="0 0 375 400"><path fill="#000" fill-opacity=".5" d="M-55.8555 -2.5V174.971V296.364V393.981V395.075C-55.6938 394.948 -55.5348 394.821 -55.3758 394.695C-47.0679 387.985 -38.1484 382.181 -28.6629 377.262C-18.5603 372.026 -7.95652 368.053 2.93021 364.802C14.3936 361.378 26.1373 359.46 38.0372 358.48C43.1653 358.057 48.3096 357.777 53.4511 357.61C60.991 357.362 68.5363 357.559 76.0627 357.939C82.7483 358.278 89.4286 358.814 96.09 359.576C102.512 360.312 108.925 361.082 115.306 362.1C126.74 363.926 138.114 366.073 149.413 368.613C164.04 371.902 178.581 375.519 193.076 379.344C209.498 383.678 225.933 387.969 242.527 391.608C251.509 393.577 260.542 395.287 269.645 396.599C275.314 397.415 281.019 397.97 286.726 398.514C291.914 399.007 297.117 399.118 302.294 399.158C305.805 399.185 309.37 399.112 312.917 398.81C318.298 398.353 323.652 397.784 328.958 396.796C336.824 395.33 344.469 393.065 351.971 390.296C361.53 386.768 370.764 382.541 379.568 377.397C387.566 372.723 395.017 367.312 402.094 361.381V360.597V296.364V174.971V-2.5H-55.8555Z"/></svg>