<svg xmlns="http://www.w3.org/2000/svg" width="1919" height="1154" fill="none" viewBox="0 0 1919 1154"><path fill="#000" fill-opacity=".5" d="M-1 -2V212.831V721.974V1131.4V1135.98C-0.322122 1135.45 0.344459 1134.92 1.01104 1134.39C35.8427 1106.25 73.239 1081.9 113.008 1061.27C155.364 1039.31 199.821 1022.65 245.465 1009.01C293.527 994.654 342.763 986.611 392.655 982.499C414.155 980.725 435.723 979.55 457.28 978.85C488.891 977.81 520.526 978.635 552.081 980.228C580.111 981.651 608.119 983.899 636.047 987.097C662.971 990.181 689.86 993.412 716.613 997.682C764.551 1005.34 812.239 1014.35 859.612 1025C920.937 1038.79 981.901 1053.96 1042.67 1070.01C1111.52 1088.18 1180.43 1106.18 1250 1121.44C1287.66 1129.7 1325.53 1136.88 1363.69 1142.38C1387.46 1145.8 1411.38 1148.13 1435.31 1150.41C1457.06 1152.48 1478.88 1152.94 1500.58 1153.11C1515.3 1153.22 1530.25 1152.92 1545.12 1151.65C1567.68 1149.73 1590.13 1147.35 1612.37 1143.2C1645.35 1137.06 1677.4 1127.55 1708.86 1115.94C1748.93 1101.14 1787.65 1083.42 1824.56 1061.84C1858.09 1042.24 1889.33 1019.54 1919 994.666V991.378V721.974V212.831V-2H-1Z"/></svg>