<svg width="375" height="408" viewBox="0 0 375 408" fill="none" xmlns="http://www.w3.org/2000/svg">
<path d="M-84 -9.5V156.468V292.665V402.186V403.413C-83.8185 403.271 -83.6401 403.129 -83.4616 402.987C-74.1369 395.459 -64.1256 388.946 -53.4792 383.428C-42.1401 377.553 -30.2384 373.096 -18.0192 369.448C-5.15271 365.607 8.02833 363.456 21.3848 362.355C27.1405 361.881 32.9144 361.567 38.6853 361.379C47.148 361.101 55.6168 361.322 64.0644 361.748C71.5683 362.129 79.0662 362.73 86.5429 363.585C93.7504 364.41 100.949 365.275 108.111 366.417C120.944 368.466 133.711 370.875 146.393 373.724C162.81 377.414 179.131 381.473 195.4 385.764C213.832 390.627 232.278 395.441 250.904 399.523C260.985 401.733 271.123 403.652 281.34 405.123C287.703 406.039 294.106 406.661 300.512 407.272C306.335 407.825 312.175 407.949 317.985 407.994C321.926 408.024 325.928 407.943 329.908 407.604C335.948 407.091 341.958 406.453 347.913 405.344C356.742 403.7 365.323 401.158 373.743 398.052C384.471 394.093 394.836 389.351 404.718 383.579C413.695 378.336 422.057 372.265 430 365.61V364.731V292.665V156.468V-9.5L-84 -9.5Z" fill="url(#paint0_linear)"/>
<defs>
<linearGradient id="paint0_linear" x1="435.128" y1="307.622" x2="118.653" y2="437.051" gradientUnits="userSpaceOnUse">
<stop stop-color="#B50000"/>
<stop offset="1" stop-color="#F41616"/>
</linearGradient>
</defs>
</svg>
