<svg xmlns="http://www.w3.org/2000/svg" width="375" height="1041" fill="none" viewBox="0 0 375 1041"><path fill="#1A1C25" d="M-95 3.71621e-05L-95 860.657L-95 958.038L-95 1036.35L-95 1037.22C-94.8338 1037.12 -94.6702 1037.02 -94.5067 1036.92C-85.9621 1031.54 -76.7883 1026.88 -67.0325 1022.93C-56.642 1018.73 -45.7361 1015.55 -34.5391 1012.94C-22.749 1010.19 -10.6707 1008.65 1.56844 1007.87C6.84267 1007.53 12.1336 1007.3 17.4217 1007.17C25.1764 1006.97 32.9367 1007.13 40.6776 1007.43C47.5538 1007.7 54.4244 1008.13 61.2756 1008.75C67.8802 1009.34 74.4765 1009.95 81.0395 1010.77C92.7991 1012.24 104.498 1013.96 116.119 1016C131.163 1018.63 146.118 1021.54 161.026 1024.6C177.916 1028.08 194.819 1031.52 211.886 1034.44C221.124 1036.02 230.414 1037.39 239.776 1038.45C245.608 1039.1 251.475 1039.55 257.345 1039.98C262.68 1040.38 268.032 1040.47 273.356 1040.5C276.967 1040.52 280.634 1040.46 284.282 1040.22C289.816 1039.85 295.323 1039.4 300.78 1038.6C308.871 1037.43 316.733 1035.61 324.449 1033.39C334.28 1030.56 343.778 1027.17 352.833 1023.04C361.058 1019.29 368.722 1014.95 376 1010.19L376 1009.57L376 958.038L376 860.657L376 3.71621e-05L-95 3.71621e-05Z"/></svg>