<svg xmlns="http://www.w3.org/2000/svg" width="20" height="19" fill="none" viewBox="0 0 20 19"><g clip-path="url(#clip0)"><path fill="#fff" d="M9.69304 13.5692V10.0567H5.77783C5.81602 11.4342 5.99574 12.7554 6.30279 13.9522C7.37334 13.7317 8.51726 13.6007 9.69304 13.5692Z"/><path fill="#fff" d="M8.6492 18.3566C8.98962 18.6446 9.33913 18.8385 9.6934 18.9381V14.6829C8.62656 14.7129 7.59131 14.8284 6.62305 15.0214C6.78854 15.5009 6.97661 15.9538 7.18664 16.3739C7.61528 17.2312 8.10736 17.8983 8.6492 18.3566Z"/><path fill="#fff" d="M13.3134 16.3739C13.5234 15.9538 13.7115 15.5009 13.877 15.0214C12.9087 14.8284 11.8735 14.7128 10.8066 14.6829V18.9381C11.1609 18.8385 11.5104 18.6446 11.8508 18.3566C12.3927 17.8983 12.8848 17.2312 13.3134 16.3739Z"/><path fill="#fff" d="M14.9653 3.72102C15.75 3.50453 16.4748 3.23314 17.117 2.91191C17.0715 2.86455 17.0258 2.81734 16.9793 2.7708C15.909 1.70058 14.6288 0.916782 13.2314 0.45763C13.6229 0.920271 13.9848 1.479 14.3094 2.12815C14.5562 2.62174 14.7754 3.15523 14.9653 3.72102Z"/><path fill="#fff" d="M10.8066 10.0567V13.5692C11.9824 13.6007 13.1263 13.7317 14.1969 13.9522C14.5039 12.7554 14.6837 11.4342 14.7218 10.0567H10.8066Z"/><path fill="#fff" d="M7.18664 2.62608C6.97661 3.04615 6.78854 3.49903 6.62305 3.97864C7.59131 4.17156 8.62656 4.28717 9.6934 4.31705V0.0619087C9.3391 0.161414 8.98958 0.355378 8.6492 0.643355C8.10736 1.10173 7.61528 1.7688 7.18664 2.62608Z"/><path fill="#fff" d="M9.69349 8.94327V5.43081C8.51772 5.39929 7.37379 5.26828 6.30328 5.04785C5.99619 6.24463 5.81651 7.56582 5.77832 8.94327H9.69349Z"/><path fill="#fff" d="M5.53502 15.279C4.75029 15.4955 4.02554 15.7669 3.3833 16.0881C3.42877 16.1355 3.47446 16.1827 3.52104 16.2292C4.59125 17.2995 5.87154 18.0833 7.26885 18.5424C6.87743 18.0798 6.51545 17.521 6.19088 16.8719C5.94406 16.3783 5.72493 15.8448 5.53502 15.279Z"/><path fill="#fff" d="M15.2788 14.2126C16.227 14.4754 17.0983 14.8131 17.8585 15.2182C18.986 13.7245 19.642 11.9425 19.75 10.0567H15.8359C15.7972 11.5198 15.6065 12.9292 15.2788 14.2126Z"/><path fill="#fff" d="M14.9653 15.279C14.7754 15.8448 14.5562 16.3783 14.3094 16.8719C13.9848 17.521 13.6228 18.0798 13.2314 18.5424C14.6288 18.0833 15.909 17.2995 16.9793 16.2292C17.0258 16.1827 17.0715 16.1355 17.117 16.0881C16.4748 15.7669 15.75 15.4955 14.9653 15.279Z"/><path fill="#fff" d="M15.2788 4.78737C15.6065 6.07078 15.7972 7.48016 15.8359 8.94327H19.75C19.642 7.05749 18.986 5.27544 17.8585 3.78178C17.0983 4.18685 16.227 4.52464 15.2788 4.78737Z"/><path fill="#fff" d="M10.8066 5.43081V8.94327H14.7218C14.6837 7.56578 14.5039 6.24463 14.1969 5.04785C13.1263 5.26828 11.9824 5.39929 10.8066 5.43081Z"/><path fill="#fff" d="M11.8508 0.643355C11.5104 0.355416 11.1609 0.161452 10.8066 0.0619087V4.31702C11.8735 4.2871 12.9087 4.17152 13.877 3.9786C13.7115 3.49903 13.5234 3.04612 13.3134 2.62605C12.8848 1.7688 12.3927 1.10173 11.8508 0.643355Z"/><path fill="#fff" d="M5.53502 3.72102C5.72493 3.15524 5.94406 2.62174 6.19088 2.12811C6.51545 1.47897 6.87747 0.920236 7.26885 0.457596C5.87154 0.916748 4.59129 1.70055 3.52104 2.77076C3.47446 2.81734 3.42877 2.86455 3.3833 2.91191C4.02554 3.23314 4.75033 3.50453 5.53502 3.72102Z"/><path fill="#fff" d="M5.22126 14.2126C4.89354 12.9292 4.70284 11.5198 4.66417 10.0567H0.75C0.858079 11.9425 1.51405 13.7245 2.6415 15.2182C3.40177 14.8132 4.27305 14.4754 5.22126 14.2126Z"/><path fill="#fff" d="M5.22126 4.78738C4.27308 4.52464 3.40177 4.18685 2.6415 3.78181C1.51405 5.27548 0.858079 7.05753 0.75 8.94327H4.66417C4.7028 7.48016 4.89354 6.07074 5.22126 4.78738Z"/><path fill="#223C72" d="M1.03072 7.21806C2.29056 2.12489 7.44015 -0.9798 12.5316 0.280536C17.6245 1.54026 20.7293 6.68924 19.4694 11.7816C18.2091 16.8739 13.0604 19.98 7.96788 18.7195C2.87609 17.4596 -0.23035 12.3103 1.03072 7.21806Z"/><path fill="#EFEBE7" d="M16.9888 2.80421L13.1695 5.35034V0.462625C12.961 0.395622 12.7491 0.334751 12.5331 0.281241C10.7411 -0.16233 8.94215 -0.0645083 7.3079 0.469678V5.3508L3.5037 2.81495C2.63253 3.69258 1.92465 4.74899 1.44352 5.94555L2.451 6.61711H1.2025C1.1398 6.8146 1.08245 7.01499 1.03186 7.21891C0.58508 9.02371 0.687191 10.8354 1.23163 12.4789H2.47599L1.4794 13.1434C1.96267 14.3049 2.67331 15.3639 3.57009 16.253L7.30806 13.7615V18.531C7.52455 18.6013 7.74487 18.6648 7.96948 18.7203C9.75245 19.1617 11.542 19.0671 13.1697 18.54V13.7613L16.9225 16.2628C17.8041 15.3947 18.5243 14.3469 19.0186 13.1571L18.0011 12.4789H19.2703C19.3453 12.2512 19.4123 12.0189 19.4709 11.7825C19.9088 10.0124 19.8189 8.23531 19.3018 6.61727H18.0264L19.0535 5.93267C18.5798 4.76617 17.8782 3.70055 16.9888 2.80421Z"/><path fill="#EF3827" d="M5.84596 6.6175L2.31927 4.27162C2.08469 4.62748 1.87218 5.00145 1.68513 5.39273L3.52606 6.6175H5.84596ZM18.1665 4.25322C17.9297 3.89535 17.6681 3.55359 17.3843 3.22992L13.1686 6.03363V6.6175H14.6124L18.1665 4.25322ZM2.34533 14.766C2.58298 15.1231 2.84501 15.4641 3.12942 15.7868L7.30681 13.0086V12.4791H5.78402L2.34533 14.766ZM19.6033 7.83812H11.9478V0.156666C10.7872 -0.0552303 9.63177 -0.0458775 8.5277 0.158352V7.83812H0.899822C0.692225 8.99864 0.706177 10.1538 0.914234 11.257H8.5277V18.8408C9.68804 19.0559 10.8435 19.0493 11.9478 18.8481V11.257H19.584C19.8032 10.0977 19.8002 8.94268 19.6033 7.83812ZM14.694 12.4791L18.1501 14.7776C18.3869 14.4231 18.6011 14.0503 18.7904 13.6604L17.0137 12.479L14.694 12.4791Z"/><path fill="#303F66" d="M13.168 1.45056V1.45117V2.06662C13.2054 1.94994 13.2248 1.83909 13.225 1.73529C13.2252 1.63348 13.2066 1.53811 13.168 1.45056Z"/></g><defs><clipPath id="clip0"><rect width="19" height="19" fill="#fff" transform="translate(0.75)"/></clipPath></defs></svg>