<svg xmlns="http://www.w3.org/2000/svg" width="22" height="16" fill="none" viewBox="0 0 22 16"><path fill="url(#paint0_linear)" d="M21.0109 0.0912029C20.9653 0.0456014 20.8741 0 20.7829 0C20.7373 0 20.6461 -4.24697e-08 20.6005 0.0456014L20.5549 0.0912029L10.5681 5.97379L0.627021 0.0912029C0.581419 0.0912029 0.490217 0.0456015 0.353412 0C0.216608 0 0.0798026 0.0456013 0.0342011 0.182406C-0.0114004 0.31921 -0.0114004 0.456014 0.0342011 0.547217L10.2033 14.9117C10.2945 15.0485 10.4313 15.1397 10.6137 15.1397C10.7505 15.1397 10.8417 15.0485 10.933 14.9573L21.0565 0.684021C21.1021 0.63842 21.1477 0.547217 21.1933 0.410413C21.1477 0.273608 21.1021 0.136804 21.0109 0.0912029ZM9.56491 6.2018L10.2489 6.61221V13.6804L1.58465 1.50485L9.56491 6.2018ZM10.9786 13.6348V6.61221C10.9786 6.61221 10.9786 6.61221 10.9786 6.56661L19.5972 1.50485L10.9786 13.6348Z"/><path fill="url(#paint1_linear)" d="M10.6134 14.4559C10.6134 14.4559 10.6134 14.5015 10.6134 14.4559C10.5678 14.5015 10.5678 14.5015 10.6134 14.4559C10.5678 14.4559 10.5678 14.4559 10.5222 14.4103C9.51892 12.9511 8.47009 11.5374 7.42125 10.0782C6.37242 8.57333 5.32359 7.11409 4.27475 5.60924C3.27152 4.19559 2.22269 2.73635 1.21945 1.3227C0.945845 0.912287 0.672238 0.547476 0.398629 0.182664C0.398629 0.137063 0.398629 0.137063 0.353027 0.0914612C0.398629 0.0914612 0.44423 0.137063 0.44423 0.137063C1.90348 1.00349 3.31712 1.82432 4.77637 2.69074C6.41802 3.64838 8.10527 4.65161 9.74693 5.60924C10.0205 5.79164 10.2941 5.92845 10.5678 6.11085C10.6134 6.15646 10.6134 6.15646 10.6134 6.20206C10.6134 6.24766 10.6134 6.29326 10.6134 6.33886C10.6134 8.93815 10.6134 11.583 10.6134 14.1823C10.6134 14.3191 10.6134 14.3647 10.6134 14.4559Z"/><path fill="url(#paint2_linear)" d="M20.7824 0.0914612C20.7824 0.137063 20.7824 0.137063 20.7368 0.182664C17.6815 4.4692 14.6262 8.80134 11.5709 13.0879C11.2517 13.5439 10.9325 13.9999 10.6133 14.4559V14.4103C10.6133 14.3647 10.6133 14.3647 10.6133 14.3191C10.6133 11.6286 10.6133 8.93815 10.6133 6.24766C10.6133 6.20206 10.6133 6.15646 10.6133 6.11086C11.2973 5.70044 11.9813 5.29003 12.6653 4.87962C15.3558 3.28356 18.0463 1.68751 20.7368 0.137063C20.7368 0.0914611 20.7824 0.0914612 20.7824 0.0914612Z"/><defs><linearGradient id="paint0_linear" x1="10.583" x2="10.583" y1="-19.75" y2="18.291" gradientUnits="userSpaceOnUse"><stop stop-color="#FEFFFF"/><stop offset=".202" stop-color="#FBEEB8"/><stop offset=".524" stop-color="#F6D240"/><stop offset=".572" stop-color="#F2BC3C"/><stop offset=".686" stop-color="#E98C35"/><stop offset=".774" stop-color="#E46E30"/><stop offset=".824" stop-color="#E2632E"/><stop offset=".825" stop-color="#E2632E"/><stop offset=".892" stop-color="#DA493E"/><stop offset=".952" stop-color="#D53947"/><stop offset="1" stop-color="#D3344A"/></linearGradient><linearGradient id="paint1_linear" x1="-1.19" x2="16.76" y1="-8.037" y2="21.943" gradientUnits="userSpaceOnUse"><stop stop-color="#FEFFFF"/><stop offset=".202" stop-color="#FBEEB8"/><stop offset=".524" stop-color="#F6D240"/><stop offset=".572" stop-color="#F2BC3C"/><stop offset=".686" stop-color="#E98C35"/><stop offset=".774" stop-color="#E46E30"/><stop offset=".824" stop-color="#E2632E"/><stop offset=".825" stop-color="#E2632E"/><stop offset=".892" stop-color="#DA493E"/><stop offset=".952" stop-color="#D53947"/><stop offset="1" stop-color="#D3344A"/></linearGradient><linearGradient id="paint2_linear" x1="16.723" x2="11.581" y1="9.534" y2="-1.915" gradientUnits="userSpaceOnUse"><stop stop-color="#FEFFFF"/><stop offset=".202" stop-color="#FBEEB8"/><stop offset=".524" stop-color="#F6D240"/><stop offset=".572" stop-color="#F2BC3C"/><stop offset=".686" stop-color="#E98C35"/><stop offset=".774" stop-color="#E46E30"/><stop offset=".824" stop-color="#E2632E"/><stop offset=".825" stop-color="#E2632E"/><stop offset=".892" stop-color="#DA493E"/><stop offset=".952" stop-color="#D53947"/><stop offset="1" stop-color="#D3344A"/></linearGradient></defs></svg>