<svg width="16" height="22" viewBox="0 0 16 22" fill="none" xmlns="http://www.w3.org/2000/svg">
<path d="M8.07652 0.0129886C3.99827 0.00582306 0.678259 3.31427 0.671093 7.39244C0.668669 8.77236 1.04833 10.116 1.77318 11.2755L7.53896 20.7485C7.63732 20.9088 7.785 21.0077 7.95749 21.0327C8.19144 21.07 8.45047 20.9719 8.58636 20.7381L14.4021 11.199C15.094 10.0668 15.4536 8.74909 15.456 7.41841C15.4631 3.34025 12.1548 0.0201541 8.07652 0.0129886ZM8.05703 11.1016C5.98723 11.098 4.36376 9.41953 4.36731 7.39893C4.37088 5.36597 6.03706 3.70563 8.07002 3.70921C10.103 3.71278 11.7633 5.37896 11.7597 7.41192C11.7562 9.4202 10.1515 11.1053 8.05703 11.1016Z" fill="#F41616"/>
</svg>
