<svg width="18" height="14" viewBox="0 0 18 14" fill="none" xmlns="http://www.w3.org/2000/svg">
<path d="M5.95747 7.13393L0.00349214 10.8833L0.0169832 3.20488L5.95747 7.13393Z" fill="#F41616"/>
<path d="M17.6582 3.2356L17.6447 10.914L11.704 7.14375L17.6582 3.2356Z" fill="#F41616"/>
<path d="M1.12364 0.970755L16.5599 0.997877C17.1101 0.998843 17.546 1.40977 17.6277 1.93806L8.82994 7.71231L0.0524787 1.90718C0.136101 1.37918 0.573448 0.969788 1.12364 0.970755Z" fill="#F41616"/>
<path d="M6.96594 7.80075L8.5243 8.83111C8.61681 8.89191 8.7215 8.92186 8.82735 8.92205C8.9332 8.92224 9.038 8.89265 9.13072 8.83217L10.6927 7.8062L17.6071 12.1967C17.5212 12.7203 17.0861 13.1264 16.5381 13.1254L1.10187 13.0983C0.553883 13.0974 0.120177 12.6897 0.0361977 12.1659L6.96594 7.80075Z" fill="#F41616"/>
</svg>
