<svg width="33" height="24" viewBox="0 0 33 24" fill="none" xmlns="http://www.w3.org/2000/svg">
<path d="M32.1133 23.0003C32.0436 23.07 31.9042 23.1396 31.7648 23.1396C31.6951 23.1396 31.5557 23.1396 31.486 23.07L31.4163 23.0003L16.1525 14.0092L0.958346 23.0003C0.888648 23.0003 0.749253 23.07 0.540159 23.1396C0.331066 23.1396 0.121971 23.07 0.0522734 22.8609C-0.0174245 22.6518 -0.0174245 22.4427 0.0522734 22.3033L15.5949 0.348452C15.7343 0.139357 15.9434 -4.00543e-05 16.2222 -4.00543e-05C16.4313 -4.00543e-05 16.5707 0.139357 16.7101 0.278751L32.183 22.0942C32.2527 22.1639 32.3224 22.3033 32.3921 22.5124C32.3224 22.7215 32.2527 22.9306 32.1133 23.0003ZM14.6191 13.6607L15.6646 13.0335V2.23029L2.422 20.8396L14.6191 13.6607ZM16.7798 2.29999V13.0335C16.7798 13.0335 16.7798 13.0335 16.7798 13.1032L29.9526 20.8396L16.7798 2.29999Z" fill="url(#paint0_linear)"/>
<path d="M16.2221 1.04518C16.2221 1.04518 16.2221 0.975481 16.2221 1.04518C16.1524 0.975481 16.1524 0.975481 16.2221 1.04518C16.1524 1.04518 16.1524 1.04518 16.0827 1.11488C14.5493 3.34521 12.9463 5.50584 11.3432 7.73617C9.74015 10.0362 8.1371 12.2665 6.53405 14.5666C5.0007 16.7272 3.39765 18.9575 1.8643 21.1182C1.44611 21.7454 1.02792 22.303 0.609737 22.8606C0.609737 22.9303 0.609737 22.9303 0.540039 23C0.609737 23 0.679435 22.9303 0.679435 22.9303C2.90977 21.606 5.0704 20.3515 7.30073 19.0272C9.80985 17.5636 12.3887 16.0302 14.8978 14.5666C15.316 14.2878 15.7342 14.0787 16.1524 13.7999C16.2221 13.7302 16.2221 13.7302 16.2221 13.6605C16.2221 13.5908 16.2221 13.5211 16.2221 13.4514C16.2221 9.47862 16.2221 5.43614 16.2221 1.46337C16.2221 1.25427 16.2221 1.18457 16.2221 1.04518Z" fill="url(#paint1_linear)"/>
<path d="M31.7638 23C31.7638 22.9303 31.7638 22.9303 31.6941 22.8606C27.0244 16.309 22.3546 9.68771 17.6848 3.13611C17.197 2.43913 16.7091 1.74215 16.2212 1.04517V1.11487C16.2212 1.18457 16.2212 1.18457 16.2212 1.25426C16.2212 5.36644 16.2212 9.47861 16.2212 13.5908C16.2212 13.6605 16.2212 13.7302 16.2212 13.7999C17.2667 14.4272 18.3121 15.0544 19.3576 15.6817C23.4698 18.1211 27.5819 20.5606 31.6941 22.9303C31.6941 23 31.7638 23 31.7638 23Z" fill="url(#paint2_linear)"/>
<defs>
<linearGradient id="paint0_linear" x1="16.1755" y1="53.3265" x2="16.1755" y2="-4.81616" gradientUnits="userSpaceOnUse">
<stop stop-color="#FEFFFF"/>
<stop offset="0.2019" stop-color="#FBEEB8"/>
<stop offset="0.5238" stop-color="#F6D240"/>
<stop offset="0.5718" stop-color="#F2BC3C"/>
<stop offset="0.6864" stop-color="#E98C35"/>
<stop offset="0.7741" stop-color="#E46E30"/>
<stop offset="0.8237" stop-color="#E2632E"/>
<stop offset="0.8248" stop-color="#E2632E"/>
<stop offset="0.8916" stop-color="#DA493E"/>
<stop offset="0.952" stop-color="#D53947"/>
<stop offset="1" stop-color="#D3344A"/>
</linearGradient>
<linearGradient id="paint1_linear" x1="-1.81784" y1="35.4236" x2="25.6166" y2="-10.3985" gradientUnits="userSpaceOnUse">
<stop stop-color="#FEFFFF"/>
<stop offset="0.2019" stop-color="#FBEEB8"/>
<stop offset="0.5238" stop-color="#F6D240"/>
<stop offset="0.5718" stop-color="#F2BC3C"/>
<stop offset="0.6864" stop-color="#E98C35"/>
<stop offset="0.7741" stop-color="#E46E30"/>
<stop offset="0.8237" stop-color="#E2632E"/>
<stop offset="0.8248" stop-color="#E2632E"/>
<stop offset="0.8916" stop-color="#DA493E"/>
<stop offset="0.952" stop-color="#D53947"/>
<stop offset="1" stop-color="#D3344A"/>
</linearGradient>
<linearGradient id="paint2_linear" x1="25.5593" y1="8.56766" x2="17.6995" y2="26.0667" gradientUnits="userSpaceOnUse">
<stop stop-color="#FEFFFF"/>
<stop offset="0.2019" stop-color="#FBEEB8"/>
<stop offset="0.5238" stop-color="#F6D240"/>
<stop offset="0.5718" stop-color="#F2BC3C"/>
<stop offset="0.6864" stop-color="#E98C35"/>
<stop offset="0.7741" stop-color="#E46E30"/>
<stop offset="0.8237" stop-color="#E2632E"/>
<stop offset="0.8248" stop-color="#E2632E"/>
<stop offset="0.8916" stop-color="#DA493E"/>
<stop offset="0.952" stop-color="#D53947"/>
<stop offset="1" stop-color="#D3344A"/>
</linearGradient>
</defs>
</svg>
